<svg aria-hidden="true" style="position: absolute; width: 0; height: 0; overflow: hidden;" version="1.1" xmlns="http://www.w3.org/2000/svg" xmlns:xlink="http://www.w3.org/1999/xlink">
    <defs>
        <symbol id="icon-heard" viewBox="0 0 34 32">
            <path fill="#ff6b08" style="fill: var(--color1, #ff6b08)" d="M17.231 31.705l-2.412-2.412c-8.96-7.926-14.818-13.268-14.818-19.815 0-5.342 4.135-9.477 9.477-9.477 2.929 0 5.858 1.378 7.754 3.618 1.895-2.24 4.825-3.618 7.754-3.618 5.342 0 9.477 4.135 9.477 9.477 0 6.548-5.858 11.889-14.818 19.815l-2.412 2.412z"></path>
        </symbol>
        <symbol id="icon-search-icon" viewBox="0 0 32 32">
            <path fill="none" stroke="#fff" style="stroke: var(--color2, #fff)" stroke-linejoin="round" stroke-linecap="round" stroke-miterlimit="4" stroke-width="2.6667" d="M14.667 25.333c5.891 0 10.667-4.776 10.667-10.667s-4.776-10.667-10.667-10.667c-5.891 0-10.667 4.776-10.667 10.667s4.776 10.667 10.667 10.667z"></path>
            <path fill="none" stroke="#fff" style="stroke: var(--color2, #fff)" stroke-linejoin="round" stroke-linecap="round" stroke-miterlimit="4" stroke-width="2.6667" d="M28 28.001l-5.8-5.8"></path>
        </symbol>
        <symbol id="icon-film" viewBox="0 0 32 32">
            <path fill="none" stroke="#fff" style="stroke: var(--color2, #fff)" stroke-linejoin="round" stroke-linecap="round" stroke-miterlimit="4" stroke-width="2.6667" d="M26.427 2.667h-20.853c-1.605 0-2.907 1.301-2.907 2.907v20.853c0 1.605 1.301 2.907 2.907 2.907h20.853c1.605 0 2.907-1.301 2.907-2.907v-20.853c0-1.605-1.301-2.907-2.907-2.907z"></path>
            <path fill="none" stroke="#fff" style="stroke: var(--color2, #fff)" stroke-linejoin="round" stroke-linecap="round" stroke-miterlimit="4" stroke-width="2.6667" d="M9.333 2.667v26.667"></path>
            <path fill="none" stroke="#fff" style="stroke: var(--color2, #fff)" stroke-linejoin="round" stroke-linecap="round" stroke-miterlimit="4" stroke-width="2.6667" d="M22.667 2.667v26.667"></path>
            <path fill="none" stroke="#fff" style="stroke: var(--color2, #fff)" stroke-linejoin="round" stroke-linecap="round" stroke-miterlimit="4" stroke-width="2.6667" d="M2.667 16h26.667"></path>
            <path fill="none" stroke="#fff" style="stroke: var(--color2, #fff)" stroke-linejoin="round" stroke-linecap="round" stroke-miterlimit="4" stroke-width="2.6667" d="M2.667 9.333h6.667"></path>
            <path fill="none" stroke="#fff" style="stroke: var(--color2, #fff)" stroke-linejoin="round" stroke-linecap="round" stroke-miterlimit="4" stroke-width="2.6667" d="M2.667 22.667h6.667"></path>
            <path fill="none" stroke="#fff" style="stroke: var(--color2, #fff)" stroke-linejoin="round" stroke-linecap="round" stroke-miterlimit="4" stroke-width="2.6667" d="M22.667 22.667h6.667"></path>
            <path fill="none" stroke="#fff" style="stroke: var(--color2, #fff)" stroke-linejoin="round" stroke-linecap="round" stroke-miterlimit="4" stroke-width="2.6667" d="M22.667 9.333h6.667"></path>
        </symbol>
        <symbol id="icon-close" viewBox="0 0 32 32">
            <path d="M32 3.223l-3.223-3.223-12.777 12.777-12.777-12.777-3.223 3.223 12.777 12.777-12.777 12.777 3.223 3.223 12.777-12.777 12.777 12.777 3.223-3.223-12.777-12.777 12.777-12.777z"></path>
        </symbol>
        <symbol id="icon-heart" viewBox="0 0 32 32">
            <path fill="#FF6B08" d="M23.6 2c-3.363 0-6.258 2.736-7.599 5.594-1.342-2.858-4.237-5.594-7.601-5.594-4.637 0-8.4 3.764-8.4 8.401 0 9.433 9.516 11.906 16.001 21.232 6.13-9.268 15.999-12.1 15.999-21.232 0-4.637-3.763-8.401-8.4-8.401z"></path>
        </symbol>
        <symbol id="moon" viewBox="0 0 32 32">
            <path d="M17.701 32a15.97 15.97 0 0012.429-5.925c.442-.544-.04-1.339-.723-1.209-7.763 1.478-14.891-4.474-14.891-12.31 0-4.514 2.416-8.665 6.344-10.9.605-.345.453-1.262-.235-1.389-.879-.17-1.89-.267-2.923-.268-8.832 0-16 7.157-16 16 0 8.832 7.157 16 16 16z" />
        </symbol>
        <symbol id="sun" viewBox="0 0 32 32">
            <path d="M16 10c-3.306 0-6 2.694-6 6s2.694 6 6 6 6-2.694 6-6-2.694-6-6-6zm15.4 5.031l-5.919-2.956L27.575 5.8c.281-.85-.525-1.656-1.369-1.369l-6.275 2.094L16.969.6c-.4-.8-1.537-.8-1.938 0l-2.956 5.919-6.281-2.094c-.85-.281-1.656.525-1.369 1.369l2.094 6.275L.6 15.032c-.8.4-.8 1.538 0 1.938l5.919 2.956-2.094 6.281c-.281.85.525 1.656 1.369 1.369l6.275-2.094 2.956 5.919c.4.8 1.538.8 1.938 0l2.956-5.919 6.275 2.094c.85.281 1.656-.525 1.369-1.369l-2.094-6.275 5.919-2.956c.813-.406.813-1.544.012-1.944zm-9.744 6.625c-3.119 3.119-8.194 3.119-11.313 0s-3.119-8.194 0-11.313c3.119-3.119 8.194-3.119 11.313 0s3.119 8.194 0 11.313z" />
        </symbol>
        <symbol id="icon-arrow-up" viewBox="0 0 32 32">
            <path d="M26.132 24.713c1.34 1.34 3.522 1.34 4.862 0s1.34-3.522 0-4.862l-12.563-12.563c-1.34-1.34-3.522-1.34-4.862 0l-12.563 12.563c-1.34 1.34-1.34 3.522 0 4.862s3.522 1.34 4.862 0l10.132-10.132 10.132 10.132z"></path>
        </symbol>
        <symbol id="facebook" viewBox=" 10 0 15 32">
            <path d="M21.329 5.313h2.921V.225C23.746.156 22.013 0 19.994 0c-4.212 0-7.097 2.649-7.097 7.519V12H8.249v5.688h4.648V32h5.699V17.689h4.46l.708-5.688h-5.169V8.082c.001-1.644.444-2.769 2.735-2.769z"/>
        </symbol>
        <symbol id="icon-google" viewBox="0 0 32 32">
            <path fill="#fbc02d" style="fill: var(--color1, #fbc02d)" d="M29.074 13.389h-1.074v-0.055h-12v5.333h7.535c-1.099 3.105-4.053 5.333-7.535 5.333-4.418 0-8-3.582-8-8s3.582-8 8-8c2.039 0 3.895 0.769 5.307 2.026l3.771-3.771c-2.381-2.219-5.567-3.588-9.079-3.588-7.363 0-13.333 5.97-13.333 13.333s5.97 13.333 13.333 13.333 13.333-5.97 13.333-13.333c0-0.894-0.092-1.767-0.259-2.611z"></path>
            <path fill="#e53935" style="fill: var(--color2, #e53935)" d="M4.204 9.794l4.381 3.213c1.185-2.935 4.056-5.007 7.415-5.007 2.039 0 3.895 0.769 5.307 2.026l3.771-3.771c-2.381-2.219-5.567-3.588-9.079-3.588-5.121 0-9.563 2.891-11.796 7.127z"></path>
            <path fill="#4caf50" style="fill: var(--color3, #4caf50)" d="M16 29.333c3.444 0 6.573-1.318 8.939-3.461l-4.127-3.492c-1.339 1.014-3.003 1.62-4.813 1.62-3.468 0-6.413-2.211-7.522-5.297l-4.348 3.35c2.207 4.318 6.688 7.281 11.87 7.281z"></path>
            <path fill="#1565c0" style="fill: var(--color4, #1565c0)" d="M29.074 13.389l-0.011-0.055h-13.063v5.333h7.535c-0.528 1.491-1.487 2.777-2.725 3.714 0.001-0.001 0.001-0.001 0.002-0.001l4.127 3.492c-0.292 0.265 4.394-3.205 4.394-9.871 0-0.894-0.092-1.767-0.259-2.611z"></path>
        </symbol>
        <symbol id="icon-github" viewBox="0 0 32 32">
            <path d="M16 0c-8.835 0-16 7.164-16 16 0 7.069 4.584 13.067 10.943 15.183 0.799 0.148 1.057-0.348 1.057-0.769v-2.979c-4.451 0.968-5.377-1.888-5.377-1.888-0.728-1.849-1.777-2.341-1.777-2.341-1.452-0.993 0.111-0.972 0.111-0.972 1.607 0.112 2.452 1.649 2.452 1.649 1.427 2.445 3.743 1.739 4.656 1.329 0.143-1.033 0.557-1.74 1.016-2.139-3.553-0.407-7.289-1.779-7.289-7.908 0-1.748 0.625-3.175 1.648-4.295-0.165-0.404-0.713-2.032 0.156-4.235 0 0 1.344-0.429 4.401 1.64 1.276-0.355 2.644-0.532 4.004-0.539 1.36 0.007 2.729 0.184 4.008 0.539 3.055-2.069 4.396-1.64 4.396-1.64 0.871 2.204 0.323 3.832 0.157 4.235 1.027 1.12 1.647 2.548 1.647 4.295 0 6.145-3.743 7.499-7.305 7.895 0.573 0.496 1.097 1.469 1.097 2.963v4.391c0 0.425 0.256 0.925 1.068 0.768 6.353-2.119 10.932-8.115 10.932-15.181 0-8.836-7.164-16-16-16z"></path>
        </symbol>
    </defs>
</svg>